<?xml version="1.0" encoding="utf-8"?>
<!-- Generator: Adobe Illustrator 27.3.1, SVG Export Plug-In . SVG Version: 6.00 Build 0)  -->
<svg version="1.1" id="Layer_1" xmlns="http://www.w3.org/2000/svg" xmlns:xlink="http://www.w3.org/1999/xlink" x="0px" y="0px"
	 viewBox="0 0 74.9 74.9" style="enable-background:new 0 0 74.9 74.9;" xml:space="preserve">
<style type="text/css">
	.st0{fill-rule:evenodd;clip-rule:evenodd;}
	.st1{display:none;}
</style>
<g id="Layer_2_00000063607386477283259000000006561613210249103785_">
	<g id="Objects">
		<path class="st0" d="M32.5,37.6V56c0,0.3,0.2,0.5,0.5,0.5h6.8c0.3,0,0.5-0.2,0.5-0.5V37.3h4.9c0.3,0,0.5-0.2,0.5-0.4l0.5-5.6
			c0-0.3-0.2-0.5-0.4-0.5c0,0,0,0,0,0h-5.4v-4c0-0.9,0.8-1.7,1.7-1.7h3.8c0.3,0,0.5-0.2,0.5-0.5V19c0-0.3-0.2-0.5-0.5-0.5h-6.4
			c-3.8,0-6.8,3.1-6.8,6.8v5.4h-3.4c-0.3,0-0.5,0.2-0.5,0.5v5.6c0,0.3,0.2,0.5,0.5,0.5h3.4V37.6z"/>
		<path class="st1" d="M37.5,0C16.8,0,0,16.8,0,37.5s16.8,37.5,37.5,37.5s37.5-16.8,37.5-37.5C74.9,16.8,58.2,0,37.5,0z M70.1,37.5
			c0,18-14.6,32.7-32.7,32.7c-18,0-32.7-14.6-32.7-32.7S19.4,4.8,37.5,4.8c0,0,0,0,0,0C55.5,4.8,70.1,19.4,70.1,37.5z"/>
	</g>
</g>
</svg>
