<?xml version="1.0" encoding="utf-8"?>
<!-- Generator: Adobe Illustrator 25.2.1, SVG Export Plug-In . SVG Version: 6.00 Build 0)  -->
<svg version="1.1" id="Layer_1" xmlns="http://www.w3.org/2000/svg" xmlns:xlink="http://www.w3.org/1999/xlink" x="0px" y="0px"
	 viewBox="0 0 74.9 74.9" style="enable-background:new 0 0 74.9 74.9;" xml:space="preserve">
<style type="text/css">
	.st0{display:none;}
</style>
<g id="Layer_2_1_">
	<g id="Objects">
		<path class="st0" d="M44.7,39.9C44,39.2,43,39,42,39.2c-0.7,0.3-1.2,1.4-1.6,2c-0.2,0.3-0.6,0.4-0.9,0.2c-2.6-1-4.8-2.9-6.2-5.3
			c-0.2-0.3-0.2-0.7,0.1-1c0.5-0.5,0.9-1.1,1.1-1.8c0-0.7-0.1-1.5-0.5-2.1c-0.3-0.9-0.8-1.8-1.6-2.4c-0.8-0.4-1.7-0.2-2.4,0.4
			c-1.1,1-1.7,2.3-1.7,3.8c0,0.4,0.1,0.8,0.1,1.2c0.3,0.9,0.6,1.8,1.2,2.7c0.4,0.6,0.8,1.2,1.2,1.8c1.4,1.9,3.2,3.6,5.2,4.9
			c1,0.6,2.1,1.2,3.2,1.5c1.2,0.5,2.5,0.7,3.8,0.6c1.5-0.2,2.8-1.2,3.4-2.6c0.2-0.4,0.2-0.9,0.2-1.3C46.7,40.8,45.5,40.3,44.7,39.9z
			"/>
		<path class="st0" d="M37.7,18.2c-10.5,0-19,8.5-19,19c0,3.2,0.8,6.4,2.4,9.3l-2.8,10.3l10.4-2.8c9.2,5,20.8,1.5,25.7-7.8
			s1.5-20.8-7.8-25.7C43.8,19,40.7,18.2,37.7,18.2L37.7,18.2z M37.7,52.6c-2.8,0-5.5-0.8-7.9-2.2l-0.6-0.4l-5.8,1.5l1.5-5.8
			l-0.4-0.7c-4.4-7.3-2.1-16.8,5.2-21.2s16.8-2.1,21.2,5.2s2.1,16.8-5.2,21.2C43.2,51.9,40.5,52.6,37.7,52.6z"/>
		<path d="M37.5,0C16.8,0,0,16.8,0,37.5s16.8,37.5,37.5,37.5s37.5-16.8,37.5-37.5C74.9,16.8,58.2,0,37.5,0z M37.5,70.1
			c-18,0-32.7-14.6-32.7-32.7S19.4,4.8,37.5,4.8s32.7,14.6,32.7,32.7c0,0,0,0,0,0C70.1,55.5,55.5,70.1,37.5,70.1z"/>
	</g>
</g>
<image style="overflow:visible;" width="512" height="512" xlink:href="../../../../../../Downloads/viber.png"  transform="matrix(7.490437e-02 0 0 7.490437e-02 18.24 18.2745)">
</image>
</svg>
