<?xml version="1.0" encoding="utf-8"?>
<!-- Generator: Adobe Illustrator 27.3.1, SVG Export Plug-In . SVG Version: 6.00 Build 0)  -->
<svg version="1.1" id="Layer_1" xmlns="http://www.w3.org/2000/svg" xmlns:xlink="http://www.w3.org/1999/xlink" x="0px" y="0px"
	 viewBox="0 0 74.9 74.9" style="enable-background:new 0 0 74.9 74.9;" xml:space="preserve">
<style type="text/css">
	.st0{display:none;}
</style>
<g id="Layer_2_00000006683399111995862420000012895978188461263282_">
	<g id="Objects">
		<path d="M38.1,17.4c-11.1,0-20,8.4-20,18.7c0,5.8,2.8,11.2,7.5,14.6v7l6.7-3.7c1.9,0.5,3.8,0.8,5.8,0.8c11.1,0,20-8.4,20-18.7
			S49.2,17.4,38.1,17.4z M51,31L40.2,42.5l-5.1-5.5l-9.9,5.4l0,0c0,0,0,0,0,0l10.9-11.6c0.3,0.3,5,5.2,5.2,5.5l9.8-5.4l0,0L51,31z"
			/>
		<path class="st0" d="M37.5,0C16.8,0,0,16.8,0,37.5s16.8,37.5,37.5,37.5s37.5-16.8,37.5-37.5C74.9,16.8,58.2,0,37.5,0z M37.5,70.1
			c-18,0-32.7-14.6-32.7-32.7c0-18,14.6-32.7,32.7-32.7c18,0,32.7,14.6,32.7,32.7c0,0,0,0,0,0C70.1,55.5,55.5,70.1,37.5,70.1z"/>
	</g>
</g>
</svg>
