<?xml version="1.0" encoding="utf-8"?>
<!-- Generator: Adobe Illustrator 27.3.1, SVG Export Plug-In . SVG Version: 6.00 Build 0)  -->
<svg version="1.1" id="Layer_1" xmlns="http://www.w3.org/2000/svg" xmlns:xlink="http://www.w3.org/1999/xlink" x="0px" y="0px"
	 viewBox="0 0 74.9 74.9" style="enable-background:new 0 0 74.9 74.9;" xml:space="preserve">
<style type="text/css">
	.st0{display:none;}
</style>
<g id="Layer_2_00000033340162877494231430000003181928862029583550_">
	<g id="Objects">
		<path d="M56.6,25.4c-1.3,0.5-2.6,0.9-3.9,1.1c0.6-0.1,1.5-1.2,1.9-1.7c0.6-0.7,1-1.5,1.3-2.4c0-0.1,0.1-0.2,0-0.2
			c-0.1,0-0.1,0-0.2,0c-1.5,0.8-3,1.4-4.6,1.8c-0.1,0-0.2,0-0.3-0.1c-0.1-0.1-0.3-0.3-0.4-0.4c-0.7-0.6-1.4-1-2.3-1.3
			c-1.1-0.4-2.3-0.6-3.4-0.5c-1.1,0.1-2.3,0.4-3.3,0.9c-1,0.5-1.9,1.3-2.6,2.1c-0.7,0.9-1.3,2-1.6,3.1c-0.2,1.1-0.3,2.2-0.1,3.3
			c0,0.2,0,0.2-0.2,0.2c-6.4-1-11.6-3.2-15.9-8.1c-0.2-0.2-0.3-0.2-0.4,0c-1.9,2.8-1,7.3,1.4,9.5c0.3,0.3,0.7,0.6,1,0.9
			c-1.1-0.1-2.1-0.4-3.1-0.9c-0.2-0.1-0.3,0-0.3,0.2c0,0.3,0,0.6,0,0.9c0.4,2.9,2.3,5.4,5,6.5c0.3,0.1,0.7,0.2,1,0.3
			c-1,0.2-2,0.2-3,0.1c-0.2,0-0.3,0.1-0.2,0.3c1.3,3.6,4.2,4.7,6.3,5.3c0.3,0,0.6,0,0.9,0.1l0,0c-0.7,1.1-3.2,1.9-4.3,2.3
			c-2.1,0.7-4.3,1-6.6,0.8c-0.4-0.1-0.4,0-0.5,0s0,0.1,0.1,0.2c0.5,0.3,0.9,0.6,1.4,0.8c1.4,0.7,2.9,1.3,4.4,1.8
			c7.9,2.2,16.7,0.6,22.7-5.3c4.6-4.6,6.3-11,6.3-17.3c0-0.2,0.3-0.4,0.5-0.5c1.2-0.9,2.3-2,3.2-3.2c0.1-0.2,0.2-0.4,0.3-0.6l0,0
			C56.8,25.3,56.8,25.3,56.6,25.4z"/>
		<path class="st0" d="M37.5,0C16.8,0,0,16.8,0,37.5s16.8,37.5,37.5,37.5s37.5-16.8,37.5-37.5C74.9,16.8,58.2,0,37.5,0z M37.5,70.1
			c-18,0-32.7-14.6-32.7-32.7c0-18,14.6-32.7,32.7-32.7c18,0,32.7,14.6,32.7,32.7c0,0,0,0,0,0C70.1,55.5,55.5,70.1,37.5,70.1z"/>
	</g>
</g>
</svg>
