<?xml version="1.0" encoding="utf-8"?>
<!-- Generator: Adobe Illustrator 27.3.1, SVG Export Plug-In . SVG Version: 6.00 Build 0)  -->
<svg version="1.1" id="Layer_1" xmlns="http://www.w3.org/2000/svg" xmlns:xlink="http://www.w3.org/1999/xlink" x="0px" y="0px"
	 viewBox="0 0 74.9 74.9" style="enable-background:new 0 0 74.9 74.9;" xml:space="preserve">
<style type="text/css">
	.st0{display:none;}
</style>
<g id="Layer_2_00000057855515601268874730000017029157787718513289_">
	<g id="Objects">
		<path d="M37.1,15.1c-12.2,0-22,9.8-22,22s9.8,22,22,22s22-9.8,22-22l0,0C59.1,25,49.3,15.1,37.1,15.1z M37.1,18.9
			c4,0,7.9,1.3,11.1,3.8c-2.4,3-5.6,5.3-9.2,6.8c-1.9-3.5-4-6.8-6.4-10C34.1,19.1,35.6,18.9,37.1,18.9z M28.9,20.9
			c2.4,3.1,4.6,6.4,6.5,9.9c-5.2,1.4-10.5,2.1-15.9,2C20.7,27.7,24.2,23.3,28.9,20.9L28.9,20.9z M18.9,37.1c0-0.2,0-0.3,0-0.5
			c6.2,0.1,12.4-0.7,18.3-2.4c0.4,0.9,0.8,1.8,1.2,2.6c-6.3,2-11.7,6.2-15.3,11.9C20.4,45.5,18.9,41.4,18.9,37.1L18.9,37.1z
			 M37.1,55.3c-4,0-7.9-1.4-11.1-3.9c3.6-5.7,8.2-9.4,13.9-11c1.7,4.4,3,9,3.8,13.7C41.6,54.9,39.4,55.3,37.1,55.3z M47.2,52.2
			c-0.8-4.3-2-8.5-3.5-12.6c3.8-0.5,7.6-0.3,11.3,0.4C54.2,44.9,51.4,49.4,47.2,52.2z M42.2,36c-0.5-1-0.9-2.1-1.4-3.1
			c4-1.6,7.5-4.2,10.2-7.5c2.6,3,4,6.8,4.3,10.7C50.9,35.3,46.5,35.3,42.2,36z"/>
		<path class="st0" d="M37.5,0C16.8,0,0,16.8,0,37.5s16.8,37.5,37.5,37.5s37.5-16.8,37.5-37.5C74.9,16.8,58.2,0,37.5,0z M37.5,70.1
			c-18,0-32.7-14.6-32.7-32.7c0-18,14.6-32.7,32.7-32.7c18,0,32.7,14.6,32.7,32.7c0,0,0,0,0,0C70.1,55.5,55.5,70.1,37.5,70.1z"/>
	</g>
</g>
</svg>
